<svg xmlns="http://www.w3.org/2000/svg" width="20" height="20" viewBox="0 0 20 20">
  <path d="M10 3.5a6.5 6.5 0 0 0-6.27 4.77.75.75 0 0 1-1.45-.38A8 8 0 0 1 17.25 10H16a.75.75 0 0 0-.75.75v2.5a.75.75 0 0 0 1.5 0V10.5A6.5 6.5 0 0 0 10 3.5ZM2.75 9.25a.75.75 0 0 0-.75.75v2.5a.75.75 0 0 0 1.5 0V10.5h1.25a.75.75 0 0 0 0-1.5l-2-.75ZM10 16.5a6.5 6.5 0 0 0 6.27-4.77.75.75 0 0 1 1.45.38A8 8 0 0 1 2.75 10v-.25a.75.75 0 0 1 .75-.75h2.5a.75.75 0 0 1 0 1.5H4.5a6.5 6.5 0 0 0 5.5 6Z" fill="currentColor"/>
</svg>
