<svg width="20" height="20" viewBox="0 0 20 20" xmlns="http://www.w3.org/2000/svg">
<path d="M10 2C8.42664 2 6.97802 2.28886 5.90401 2.77705C4.87513 3.24472 4 3.993 4 5V15C4 16.007 4.87513 16.7553 5.90401 17.2229C6.97802 17.7111 8.42664 18 10 18C11.5734 18 13.022 17.7111 14.096 17.2229C15.1249 16.7553 16 16.007 16 15V5C16 3.993 15.1249 3.24472 14.096 2.77705C13.022 2.28886 11.5734 2 10 2ZM15 5C15 5.37372 14.6439 5.87543 13.6822 6.31258C12.7656 6.72922 11.4642 7 10 7C8.53579 7 7.23441 6.72922 6.31781 6.31258C5.35608 5.87543 5 5.37372 5 5C5 4.62628 5.35608 4.12457 6.31781 3.68742C7.23441 3.27078 8.53579 3 10 3C11.4642 3 12.7656 3.27078 13.6822 3.68742C14.6439 4.12457 15 4.62628 15 5ZM15 6.69813V15C15 15.3737 14.6439 15.8754 13.6822 16.3126C12.7656 16.7292 11.4642 17 10 17C8.53579 17 7.23441 16.7292 6.31781 16.3126C5.35608 15.8754 5 15.3737 5 15V6.69813C5.27105 6.90046 5.5799 7.07563 5.90401 7.22295C6.97802 7.71114 8.42664 8 10 8C11.5734 8 13.022 7.71114 14.096 7.22295C14.4201 7.07563 14.729 6.90046 15 6.69813Z" fill="currentColor"/>
</svg>
